<mxfile host="app.diagrams.net" modified="2023-06-21T03:40:50.239Z" agent="Mozilla/5.0 (Windows NT 10.0; Win64; x64) AppleWebKit/537.36 (KHTML, like Gecko) Chrome/114.0.0.0 Safari/537.36" version="21.5.0" etag="Xbnbr20dLS9a2gQf4n5y" type="github">
  <diagram name="Page-1" id="ArzbLbPlLA9OO-sHSYxF">
    <mxGraphModel>
      <root>
        <mxCell id="0" />
        <mxCell id="1" parent="0" />
      </root>
    </mxGraphModel>
  </diagram>
</mxfile>
